<svg viewBox="0 0 357 383.95" xmlns="http://www.w3.org/2000/svg"><path d="m134.07 83.74s10.9-61 89.46 11.86 80 28.62 124 27.88 91.81 45.79 44 123-29.9 80.61-17.53 107.6c44.22 96.38-34.91 125.71-155.9 35-20.75-15.62-207.77-78.2-132.72-136.75s111.21-61.13 84.9-88-42.02-67.81-36.21-80.59z" fill="#8ec640" opacity=".5" transform="translate(-62 -59.82)"/><circle cx="21" cy="106.62" fill="#8ec640" opacity=".5" r="21"/><circle cx="336" cy="254.62" fill="#8ec640" opacity=".5" r="21"/><g stroke-linecap="round" stroke-linejoin="round"><circle cx="188.57" cy="196.07" fill="#8dc63f" r="152.83" stroke="#666" stroke-width="6"/><path d="m186.59 98.67.94 189.76" fill="#666" stroke="#fff" stroke-width="58"/><path d="m279.58 203.6h-185.31" fill="#666" stroke="#fff" stroke-width="58"/><path d="m283.42 122.51s60.47 14.29 86.86 66" fill="none" stroke="#fff" stroke-width="10" transform="translate(-62 -59.82)"/></g></svg>