<svg viewBox="0 0 393.41 349.31" xmlns="http://www.w3.org/2000/svg"><path d="m216.84 78.5s107.36-27.81 110 76.66 83.9 41.62 91.2 143.72c7.33 102.67-185.17 177.26-281.53 80.87s-65.25-266.75 80.33-301.25z" fill="#8dc63f" opacity=".5" transform="translate(-61.49 -75.14)"/><path d="m448 314s14-30-11-40-83-3-187-102c0 0-42-39-49-29s-15 33.43 0 48.22" fill="#fff" stroke="#666" stroke-linecap="round" stroke-linejoin="round" stroke-width="6" transform="translate(-61.49 -75.14)"/><path d="m107 206s32 28 53 17c0 0 37-16 52-39l32 4 109 72 47 11s47.81 2 51.91 27c0 0-8.91 38-51.91 38l-309-6s-24 3-25-38c0 0 1-86 21-86 0 0 8-9 20 0z" fill="#fff" transform="translate(-61.49 -75.14)"/><g stroke-width="6"><path d="m66 292s-9-86 17-95c0 0 23-6 39 0s8 31 49 19 11-38 73-34" fill="#fff" stroke="#666" stroke-linecap="round" stroke-linejoin="round" transform="translate(-61.49 -75.14)"/><path d="m86.56 265.79s5.44-47.79 29.44-39.79 45 27 101 11c0 0 61-20 114 61" fill="#fff" stroke="#666" stroke-linecap="round" stroke-linejoin="round" transform="translate(-61.49 -75.14)"/><path d="m74 268.05c20.79-4.3 76.77-12.77 130.39 6.36a35.05 35.05 0 0 1 4.61 2.59c3.17 2.19 11.24 6.64 21.59-.89a11.07 11.07 0 0 0 2.12-2c3.88-4.86 23.4-26.28 49.29-3.07 29 26 25 31 83 31s87-2 86-12c0 0 2 24-10 24l-118 9.96c-3.54 0-46.63-10.35-50.1-11.06-23.59-4.81-124.1-24.22-196.13-21.53a11.73 11.73 0 0 1 -12-10.89c0-.1 0-.21 0-.31a11.66 11.66 0 0 1 9.23-12.16z" fill="#8dc63f" stroke="#666" stroke-linecap="round" stroke-linejoin="round" transform="translate(-61.49 -75.14)"/><path d="m377 258s0 10-14 18c0 0 63 20 74-2z" fill="#8dc63f" stroke="#666" stroke-linecap="round" stroke-linejoin="round" transform="translate(-61.49 -75.14)"/><circle cx="195.51" cy="130.86" fill="none" r="6" stroke="#8dc63f" stroke-miterlimit="10"/><circle cx="170.51" cy="120.86" fill="none" r="6" stroke="#8dc63f" stroke-miterlimit="10"/><circle cx="150.51" cy="124.86" fill="none" r="3" stroke="#8dc63f" stroke-miterlimit="10"/><path d="m250 188s48 39 68 50c0 0 10 6 2 16" fill="none" stroke="#666" stroke-linecap="round" stroke-linejoin="round" transform="translate(-61.49 -75.14)"/><circle cx="212.51" cy="144.86" fill="none" r="6" stroke="#8dc63f" stroke-miterlimit="10"/><circle cx="230.51" cy="156.86" fill="none" r="6" stroke="#8dc63f" stroke-miterlimit="10"/><circle cx="248.51" cy="168.86" fill="none" r="6" stroke="#8dc63f" stroke-miterlimit="10"/></g><path d="m310 244s6.5-11.5 19.5-14.5" fill="none" stroke="#666" stroke-linecap="round" stroke-linejoin="round" stroke-width="11" transform="translate(-61.49 -75.14)"/><path d="m292 232s6.5-11.5 19.5-14.5" fill="none" stroke="#666" stroke-linecap="round" stroke-linejoin="round" stroke-width="11" transform="translate(-61.49 -75.14)"/><path d="m274 219s6.5-11.5 19.5-14.5" fill="none" stroke="#666" stroke-linecap="round" stroke-linejoin="round" stroke-width="11" transform="translate(-61.49 -75.14)"/><path d="m257 204s6.5-11.5 19.5-14.5" fill="none" stroke="#666" stroke-linecap="round" stroke-linejoin="round" stroke-width="11" transform="translate(-61.49 -75.14)"/><path d="m139.64 291.48s61.45 3.67 99.74 15.67c0 0 60 12 99.62 9.85 45.89-2.54 112.8-6.15 110-6 0 0-1.94 9.18-12.95 17.05a27.21 27.21 0 0 1 -15.82 5l-333 1.13s-30.23 1-20.15-43c-.02-.03 38.33-.37 72.56.3z" fill="#fff" stroke="#666" stroke-linecap="round" stroke-linejoin="round" stroke-width="6" transform="translate(-61.49 -75.14)"/><rect fill="#fff" height="16" rx="8" stroke="#666" stroke-linecap="round" stroke-linejoin="round" stroke-width="6" width="44" x="19.51" y="227.86"/><circle cx="314.01" cy="87.36" fill="#8dc63f" opacity=".5" r="27"/></svg>