<svg viewBox="0 0 411.81 413.05" xmlns="http://www.w3.org/2000/svg"><path d="m406.8 385s64.95-89.48-45.62-150 41.69-174.76-79.18-203c-227.84-53.23-305 251-222.95 264.46 153.95 25.26 263.12 211.64 347.75 88.54z" fill="#8dc63f" opacity=".5" transform="translate(-27.19 -25.76)"/><path d="m215.1 81.39s54.62-22.65 73.28 0-38.64 36.86-38.64 36.86l-30.65-15.54z" fill="#fff" transform="translate(-27.19 -25.76)"/><g stroke-linecap="round" stroke-width="6"><path d="m188.45 88.05s-86.61 4-119.92 129.24l47.37 26.58a8.67 8.67 0 0 0 11.62-3l17-27.56v222.49h213.14v-218.51l8.07 19.36a12.53 12.53 0 0 0 17.37 6.35l49.17-25.66s-29.27-126.63-122.58-129.29l-25.31 14.66-34.64-5.33-30.65 5.33z" fill="#fff" stroke="#666" stroke-linejoin="round" transform="translate(-27.19 -25.76)"/><path d="m222.55 76.95v71.95h22.65" fill="none" stroke="#666" stroke-linejoin="round"/><path d="m223.88 159.56h21.32" fill="none" stroke="#666" stroke-linejoin="round"/><path d="m87.98 200.86-42.64-23.98" fill="#fff" stroke="#666" stroke-linejoin="round"/><path d="m206 61s45-15 89 0l-14.43 16.42s-26.7-12.69-58.63 1.45l-2.94 1-15-15.81z" fill="#8dc63f" stroke="#666" stroke-linejoin="round" transform="translate(-27.19 -25.76)"/><path d="m355.79 202.2 42.63-23.99" fill="#fff" stroke="#666" stroke-linejoin="round"/><path d="m117.29 159.56v31.98" fill="#fff" stroke="#666" stroke-linejoin="round"/><path d="m330.47 163.56v31.97" fill="#fff" stroke="#666" stroke-linejoin="round"/><path d="m133.28 391.39h179.87" fill="none" stroke="#8dc63f" stroke-miterlimit="10"/><path d="m206 61s21 29 44 36l-20.22 16.85a13.12 13.12 0 0 1 -17.54-.61l-.24-.24-24-25z" fill="#8dc63f" stroke="#666" stroke-linejoin="round" transform="translate(-27.19 -25.76)"/><path d="m295 61s-21 29-44 36l20.22 16.85a13.12 13.12 0 0 0 17.54-.61l.24-.24 24-25z" fill="#8dc63f" stroke="#666" stroke-linejoin="round" transform="translate(-27.19 -25.76)"/></g><circle cx="377.81" cy="57.24" fill="#8dc63f" opacity=".5" r="34"/></svg>