<svg viewBox="0 0 405.67 417.62" xmlns="http://www.w3.org/2000/svg"><path d="m83.89 378.76s55.63 111.24 145.88 36.48 97 40.24 188.71-28.85c92.2-69.48 13.36-287.19-139.15-297.6-44-3-53.42 23.6-37.07 60.21 15 33.68-100-60-163.55 52.56-28.17 49.88-27.71 114.6 5.18 177.2z" fill="#8dc63f" opacity=".5" transform="translate(-58 -30.67)"/><path d="m345.13 246s-17 7.38-26-7.81c0 0-36.2 6.1-35.35-23.71 0 0-20.44-3.4-9.36-31.51 0 0-14.48-19.59 0-34.07 0 0-13.21-25.41 16.39-32.72 0 0-10.43-32.86 18.53-36.27 0 0-3.41-11.07 13.62-12.77 0 0 14.48-.85 15.33 12.77 0 0 28.11-5.11 31.52 29 0 0 11.92-.85 13.62 11.07 0 0 18.74 1.71 17 25.56 0 0 12.77 13.62 0 37.47 0 0 10.18 25.28-6 37.77 0 0 1.73 15-22.12 10.78.07 0 5.18 22.14-27.18 14.44z" fill="#8dc63f" stroke="#666" stroke-linecap="round" stroke-linejoin="round" stroke-width="3" transform="translate(-58 -30.67)"/><path d="m356.26 231.87c-.49 35.91.38 119.54 19.1 120.21a15.58 15.58 0 0 1 6.82 6s-5.11-3.41-10.65-2.56-12.35 1.71-15.76-2.55l-1.7 11.03-6-11.07s-10.22-.85-16.18 7.66c0 0-5.11 2.56-14.48 3.41 0 0 11.07-6.81 12.77-11.07 0 0-11.92 2.55-17 2.55 0 0 17.88-7.66 21.29-35.77 0 0 6-57.92-2.55-90.28 0 0-2.56-10.22-21.3-20.44 0 0-11.92-4.26-11.92-18.74 0 0 8.52 13.63 23 14.48 0 0 16.18 4.26 18.73 16.18 0 0 0-28.1 2.56-37.47 0 0 4.26 28.1 5.11 32.36 0 0 5.11-12.77 14.48-14.48s15.24-10.15 15.71-14.87c0 0 5.82 9.42-10.43 22.12a30.13 30.13 0 0 0 -11.6 23.3z" fill="#666" transform="translate(-58 -30.67)"/><path d="m292.66 247.31v39.18" fill="none" stroke="#fff" stroke-linecap="round" stroke-linejoin="round" stroke-width="2"/><path d="m290.96 201.32v39.18" fill="none" stroke="#fff" stroke-linecap="round" stroke-linejoin="round" stroke-width="2"/><path d="m286.7 227.72v39.18" fill="none" stroke="#fff" stroke-linecap="round" stroke-linejoin="round" stroke-width="2"/><path d="m286.7 270.31v1.7" fill="none" stroke="#fff" stroke-linecap="round" stroke-linejoin="round" stroke-width="2"/><path d="m339.59 86.34s22.15-1.7 23.85 23" fill="none" stroke="#fff" stroke-linecap="round" stroke-linejoin="round" stroke-width="2" transform="translate(-58 -30.67)"/><path d="m368.55 113.6s7.66-1.71 11.07 8.51" fill="none" stroke="#fff" stroke-linecap="round" stroke-linejoin="round" stroke-width="2" transform="translate(-58 -30.67)"/><path d="m322.56 71.86s7.66-1.7 11.07 8.52" fill="none" stroke="#fff" stroke-linecap="round" stroke-linejoin="round" stroke-width="2" transform="translate(-58 -30.67)"/><path d="m383 126.37s14.48-1.7 12.77 19.59" fill="none" stroke="#fff" stroke-linecap="round" stroke-linejoin="round" stroke-width="2" transform="translate(-58 -30.67)"/><path d="m395.8 189.4s5.11 14.48-3.4 24.7" fill="none" stroke="#fff" stroke-linecap="round" stroke-linejoin="round" stroke-width="2" transform="translate(-58 -30.67)"/><path d="m368.55 232a17.52 17.52 0 0 1 -6.81 11.08" fill="none" stroke="#fff" stroke-linecap="round" stroke-linejoin="round" stroke-width="2" transform="translate(-58 -30.67)"/><path d="m400.06 163s2.56 10.22-5.11 20.44" fill="none" stroke="#fff" stroke-linecap="round" stroke-linejoin="round" stroke-width="2" transform="translate(-58 -30.67)"/><path d="m302.12 86.34s-15.34 6-6.82 29.81" fill="none" stroke="#666" stroke-linecap="round" stroke-linejoin="round" stroke-width="2" transform="translate(-58 -30.67)"/><path d="m278.27 147.67s-6-22.15 10.22-26.41" fill="none" stroke="#666" stroke-linecap="round" stroke-linejoin="round" stroke-width="2" transform="translate(-58 -30.67)"/><path d="m279.12 180.88s-7.67-13.63-1.7-27.25" fill="none" stroke="#666" stroke-linecap="round" stroke-linejoin="round" stroke-width="2" transform="translate(-58 -30.67)"/><path d="m279.12 187.7a16.58 16.58 0 0 0 -1.7 15.33" fill="none" stroke="#666" stroke-linecap="round" stroke-linejoin="round" stroke-width="2" transform="translate(-58 -30.67)"/><path d="m304.67 84.64a8.6 8.6 0 0 0 4.26-1.71" fill="none" stroke="#666" stroke-linecap="round" stroke-linejoin="round" stroke-width="2" transform="translate(-58 -30.67)"/><path d="m291 120.41a8.6 8.6 0 0 0 4.26-1.7" fill="none" stroke="#666" stroke-linecap="round" stroke-linejoin="round" stroke-width="2" transform="translate(-58 -30.67)"/><path d="m284.13 211s-17 7.38-26-7.81c0 0-36.2 6.1-35.35-23.71 0 0-20.44-3.4-9.36-31.51 0 0-14.48-19.59 0-34.07 0 0-13.21-25.41 16.39-32.72 0 0-10.43-32.86 18.53-36.27 0 0-3.41-11.07 13.62-12.77 0 0 14.48-.85 15.33 12.77 0 0 28.11-5.11 31.52 29 0 0 11.92-.85 13.62 11.07 0 0 18.74 1.71 17 25.56 0 0 12.77 13.62 0 37.47 0 0 10.18 25.28-6 37.77 0 0 1.73 15-22.12 10.78.07 0 5.18 22.14-27.18 14.44z" fill="#8dc63f" stroke="#666" stroke-linecap="round" stroke-linejoin="round" stroke-width="3" transform="translate(-58 -30.67)"/><path d="m295.26 196.87c-.49 35.91.38 119.54 19.1 120.21a15.58 15.58 0 0 1 6.82 6s-5.11-3.41-10.65-2.56-12.35 1.71-15.76-2.55l-1.7 11.03-6-11.07s-10.22-.85-16.18 7.66c0 0-5.11 2.56-14.48 3.41 0 0 11.07-6.81 12.77-11.07 0 0-11.92 2.55-17 2.55 0 0 17.88-7.66 21.29-35.77 0 0 6-57.92-2.55-90.28 0 0-2.56-10.22-21.3-20.44 0 0-11.92-4.26-11.92-18.74 0 0 8.52 13.63 23 14.48 0 0 16.18 4.26 18.73 16.18 0 0 0-28.1 2.56-37.47 0 0 4.26 28.1 5.11 32.36 0 0 5.11-12.77 14.48-14.48s15.24-10.15 15.71-14.87c0 0 5.82 9.42-10.43 22.12a30.13 30.13 0 0 0 -11.6 23.3z" fill="#666" transform="translate(-58 -30.67)"/><path d="m231.66 212.31v39.18" fill="none" stroke="#fff" stroke-linecap="round" stroke-linejoin="round" stroke-width="2"/><path d="m229.96 166.32v39.18" fill="none" stroke="#fff" stroke-linecap="round" stroke-linejoin="round" stroke-width="2"/><path d="m225.7 192.72v39.18" fill="none" stroke="#fff" stroke-linecap="round" stroke-linejoin="round" stroke-width="2"/><path d="m225.7 235.31v1.7" fill="none" stroke="#fff" stroke-linecap="round" stroke-linejoin="round" stroke-width="2"/><path d="m278.59 51.34s22.15-1.7 23.85 23" fill="none" stroke="#fff" stroke-linecap="round" stroke-linejoin="round" stroke-width="4" transform="translate(-58 -30.67)"/><path d="m307.55 78.6s7.66-1.71 11.07 8.51" fill="none" stroke="#fff" stroke-linecap="round" stroke-linejoin="round" stroke-width="4" transform="translate(-58 -30.67)"/><path d="m261.56 36.86s7.66-1.7 11.07 8.52" fill="none" stroke="#fff" stroke-linecap="round" stroke-linejoin="round" stroke-width="4" transform="translate(-58 -30.67)"/><path d="m322 91.37s14.48-1.7 12.77 19.59" fill="none" stroke="#fff" stroke-linecap="round" stroke-linejoin="round" stroke-width="2" transform="translate(-58 -30.67)"/><path d="m334.8 154.4s5.11 14.48-3.4 24.7" fill="none" stroke="#fff" stroke-linecap="round" stroke-linejoin="round" stroke-width="2" transform="translate(-58 -30.67)"/><path d="m307.55 197a17.52 17.52 0 0 1 -6.81 11.08" fill="none" stroke="#fff" stroke-linecap="round" stroke-linejoin="round" stroke-width="2" transform="translate(-58 -30.67)"/><path d="m339.06 128s2.56 10.22-5.11 20.44" fill="none" stroke="#fff" stroke-linecap="round" stroke-linejoin="round" stroke-width="2" transform="translate(-58 -30.67)"/><path d="m241.12 51.34s-15.34 6-6.82 29.81" fill="none" stroke="#666" stroke-linecap="round" stroke-linejoin="round" stroke-width="2" transform="translate(-58 -30.67)"/><path d="m217.27 112.67s-6-22.15 10.22-26.41" fill="none" stroke="#666" stroke-linecap="round" stroke-linejoin="round" stroke-width="2" transform="translate(-58 -30.67)"/><path d="m218.12 145.88s-7.67-13.63-1.7-27.25" fill="none" stroke="#666" stroke-linecap="round" stroke-linejoin="round" stroke-width="2" transform="translate(-58 -30.67)"/><path d="m218.12 152.7a16.58 16.58 0 0 0 -1.7 15.33" fill="none" stroke="#666" stroke-linecap="round" stroke-linejoin="round" stroke-width="2" transform="translate(-58 -30.67)"/><path d="m243.67 49.64a8.6 8.6 0 0 0 4.26-1.71" fill="none" stroke="#666" stroke-linecap="round" stroke-linejoin="round" stroke-width="2" transform="translate(-58 -30.67)"/><path d="m230 85.41a8.6 8.6 0 0 0 4.26-1.7" fill="none" stroke="#666" stroke-linecap="round" stroke-linejoin="round" stroke-width="2" transform="translate(-58 -30.67)"/><path d="m390.5 249.5s-20 8.67-30.5-9.17c0 0-42.5 7.17-41.5-27.83 0 0-24-4-11-37 0 0-17-23 0-40 0 0-15.5-29.84 19.25-38.42 0 0-12.25-38.58 21.75-42.58 0 0-4-13 16-15 0 0 17-1 18 15 0 0 33-6 37 34 0 0 14-1 16 13 0 0 22 2 20 30 0 0 15 16 0 44 0 0 11.95 29.68-7 44.34 0 0 2 17.66-26 12.66 0 0 6 26-32 17z" fill="#8dc63f" stroke="#666" stroke-linecap="round" stroke-linejoin="round" stroke-width="3" transform="translate(-58 -30.67)"/><path d="m403.57 232.87c-.57 42.13.43 140.34 22.43 141.13a18.3 18.3 0 0 1 8 7s-6-4-12.5-3-14.5 2-18.5-3l-2 13-7-13s-12-1-19 9c0 0-6 3-17 4 0 0 13-8 15-13 0 0-14 3-20 3 0 0 21-9 25-42 0 0 7-68-3-106 0 0-3-12-25-24 0 0-14-5-14-22 0 0 10 16 27 17 0 0 19 5 22 19 0 0 0-33 3-44 0 0 5 33 6 38 0 0 6-15 17-17s17.9-11.93 18.45-17.46c0 0 6.83 11.06-12.25 26a35.35 35.35 0 0 0 -13.63 27.33z" fill="#666" transform="translate(-58 -30.67)"/><path d="m339 256.33v46" fill="none" stroke="#fff" stroke-linecap="round" stroke-linejoin="round" stroke-width="2"/><path d="m337 202.33v46" fill="none" stroke="#fff" stroke-linecap="round" stroke-linejoin="round" stroke-width="2"/><path d="m332 233.33v46" fill="none" stroke="#fff" stroke-linecap="round" stroke-linejoin="round" stroke-width="2"/><path d="m332 283.33v2" fill="none" stroke="#fff" stroke-linecap="round" stroke-linejoin="round" stroke-width="2"/><path d="m384 62s26-2 28 27" fill="none" stroke="#fff" stroke-linecap="round" stroke-linejoin="round" stroke-width="4" transform="translate(-58 -30.67)"/><path d="m418 94s9-2 13 10" fill="none" stroke="#fff" stroke-linecap="round" stroke-linejoin="round" stroke-width="4" transform="translate(-58 -30.67)"/><path d="m364 45s9-2 13 10" fill="none" stroke="#fff" stroke-linecap="round" stroke-linejoin="round" stroke-width="4" transform="translate(-58 -30.67)"/><path d="m435 109s17-2 15 23" fill="none" stroke="#fff" stroke-linecap="round" stroke-linejoin="round" stroke-width="4" transform="translate(-58 -30.67)"/><path d="m450 183s6 17-4 29" fill="none" stroke="#fff" stroke-linecap="round" stroke-linejoin="round" stroke-width="4" transform="translate(-58 -30.67)"/><path d="m418 233a20.56 20.56 0 0 1 -8 13" fill="none" stroke="#fff" stroke-linecap="round" stroke-linejoin="round" stroke-width="4" transform="translate(-58 -30.67)"/><path d="m455 152s3 12-6 24" fill="none" stroke="#fff" stroke-linecap="round" stroke-linejoin="round" stroke-width="4" transform="translate(-58 -30.67)"/><path d="m340 62s-18 7-8 35" fill="none" stroke="#666" stroke-linecap="round" stroke-linejoin="round" stroke-width="2" transform="translate(-58 -30.67)"/><path d="m312 134s-7-26 12-31" fill="none" stroke="#666" stroke-linecap="round" stroke-linejoin="round" stroke-width="2" transform="translate(-58 -30.67)"/><path d="m313 173s-9-16-2-32" fill="none" stroke="#666" stroke-linecap="round" stroke-linejoin="round" stroke-width="2" transform="translate(-58 -30.67)"/><path d="m313 181a19.47 19.47 0 0 0 -2 18" fill="none" stroke="#666" stroke-linecap="round" stroke-linejoin="round" stroke-width="2" transform="translate(-58 -30.67)"/><path d="m343 60s2 0 5-2" fill="none" stroke="#666" stroke-linecap="round" stroke-linejoin="round" stroke-width="2" transform="translate(-58 -30.67)"/><path d="m327 102s2 0 5-2" fill="none" stroke="#666" stroke-linecap="round" stroke-linejoin="round" stroke-width="2" transform="translate(-58 -30.67)"/><circle cx="98" cy="58.33" fill="#8dc63f" opacity=".5" r="34"/><g stroke-linecap="round" stroke-linejoin="round"><path d="m107 261.91v144.09h236v-148.18l-106-84.82s-14-11.25-24 0z" fill="#fff" stroke="#666" stroke-width="6" transform="translate(-58 -30.67)"/><path d="m72.92 277.48a10.17 10.17 0 0 0 14.42 2.2l21.66-19.68 103-84s10-7 20.91-.49l133 103.76a8.44 8.44 0 0 0 11.33-.87l4.4-4.68a8.44 8.44 0 0 0 -.93-12.42l-145.71-114.3s-10-9-20 0l-143.32 112a10.17 10.17 0 0 0 -2 13.93z" fill="#8dc63f" stroke="#666" stroke-width="6" transform="translate(-58 -30.67)"/><rect fill="#fff" height="70" rx="5.13" stroke="#666" stroke-width="6" width="70" x="184.25" y="252.33"/><rect fill="#8dc63f" height="12" rx="6" stroke="#666" stroke-width="6" width="87" x="175.75" y="249.33"/><path d="m83 259.33h59a5 5 0 0 1 5 5v109.5a0 0 0 0 1 0 0h-69a0 0 0 0 1 0 0v-109.5a5 5 0 0 1 5-5z" fill="#8dc63f" stroke="#666" stroke-width="3"/><circle cx="134" cy="318.33" fill="#fff" r="5" stroke="#666" stroke-width="3"/><path d="m184.25 292.33h70" fill="#fff" stroke="#666" stroke-width="6"/><rect fill="#fff" height="20" rx="4.56" stroke="#666" stroke-width="6" width="215" x="162" y="333.33"/><rect fill="#fff" height="20" rx="4.56" stroke="#666" stroke-width="6" width="59" x="5" y="333.33"/><path d="m205.67 364.61h53.85a.88.88 0 0 1 .88.88v18.25a.88.88 0 0 1 -.88.88h-53.85a8.06 8.06 0 0 1 -8.06-8.06v-3.89a8.06 8.06 0 0 1 8.06-8.06z" fill="#fff" stroke="#666" stroke-width="6" transform="matrix(0 1 -1 0 545.61 114.94)"/><path d="m166 327.33v46" fill="#fff" stroke="#666" stroke-width="2"/><path d="m166 321.33v2" fill="#fff" stroke="#666" stroke-width="2"/><path d="m248.67 363.61h53.85a.88.88 0 0 1 .88.88v18.25a.88.88 0 0 1 -.88.88h-53.85a8.06 8.06 0 0 1 -8.06-8.06v-3.89a8.06 8.06 0 0 1 8.06-8.06z" fill="#fff" stroke="#666" stroke-width="6" transform="matrix(0 1 -1 0 587.61 70.94)"/><path d="m209 326.33v46" fill="#fff" stroke="#666" stroke-width="2"/><path d="m209 320.33v2" fill="#fff" stroke="#666" stroke-width="2"/><path d="m47.67 365.61h53.85a.88.88 0 0 1 .88.88v18.25a.88.88 0 0 1 -.88.88h-53.85a8.06 8.06 0 0 1 -8.06-8.06v-3.89a8.06 8.06 0 0 1 8.06-8.06z" fill="#fff" stroke="#666" stroke-width="6" transform="matrix(0 1 -1 0 388.61 273.94)"/><path d="m8 328.33v46" fill="#fff" stroke="#666" stroke-width="2"/><path d="m85.54 387.72h99.45" fill="#fff" stroke="#666" stroke-width="4"/><path d="m8 322.33v2" fill="#fff" stroke="#666" stroke-width="2"/><path d="m90.67 364.61h53.85a.88.88 0 0 1 .88.88v18.25a.88.88 0 0 1 -.88.88h-53.85a8.06 8.06 0 0 1 -8.06-8.06v-3.89a8.06 8.06 0 0 1 8.06-8.06z" fill="#fff" stroke="#666" stroke-width="6" transform="matrix(0 1 -1 0 430.61 229.94)"/><path d="m51 327.33v46" fill="#fff" stroke="#666" stroke-width="2"/><path d="m51 321.33v2" fill="#fff" stroke="#666" stroke-width="2"/><path d="m196.91 387.77h4.29" fill="#fff" stroke="#666" stroke-width="4"/><path d="m68.4 387.77h4.29" fill="#fff" stroke="#666" stroke-width="4"/><path d="m36.28 398.48h98.52" fill="#fff" stroke="#666" stroke-width="4"/><path d="m17 398.48h4.28" fill="#fff" stroke="#666" stroke-width="4"/><path d="m181.14 399.14h80.8" fill="#fff" stroke="#666" stroke-width="4"/><path d="m324.88 387.36h3.51" fill="#fff" stroke="#666" stroke-width="4"/><path d="m220.48 387.77h98.52" fill="#fff" stroke="#666" stroke-width="4"/><path d="m147.65 398.48h4.29" fill="#fff" stroke="#666" stroke-width="4"/><path d="m119.81 415.62h98.52" fill="#fff" stroke="#666" stroke-width="4"/><path d="m100.53 415.62h4.29" fill="#fff" stroke="#666" stroke-width="4"/><path d="m231.18 415.62h4.29" fill="#fff" stroke="#666" stroke-width="4"/><path d="m268.96 399.14h3.52" fill="#fff" stroke="#666" stroke-width="4"/><path d="m292.67 364.61h53.85a.88.88 0 0 1 .88.88v18.25a.88.88 0 0 1 -.88.88h-53.85a8.06 8.06 0 0 1 -8.06-8.06v-3.89a8.06 8.06 0 0 1 8.06-8.06z" fill="#fff" stroke="#666" stroke-width="6" transform="matrix(0 1 -1 0 632.61 27.94)"/><path d="m253 327.33v46" fill="#fff" stroke="#666" stroke-width="2"/><path d="m253 321.33v2" fill="#fff" stroke="#666" stroke-width="2"/><path d="m335.67 363.61h53.85a.88.88 0 0 1 .88.88v18.25a.88.88 0 0 1 -.88.88h-53.85a8.06 8.06 0 0 1 -8.06-8.06v-3.89a8.06 8.06 0 0 1 8.06-8.06z" fill="#fff" stroke="#666" stroke-width="6" transform="matrix(0 1 -1 0 674.61 -16.06)"/><path d="m296 326.33v46" fill="#fff" stroke="#666" stroke-width="2"/><path d="m296 320.33v2" fill="#fff" stroke="#666" stroke-width="2"/><path d="m376.67 363.61h53.85a.88.88 0 0 1 .88.88v18.25a.88.88 0 0 1 -.88.88h-53.85a8.06 8.06 0 0 1 -8.06-8.06v-3.89a8.06 8.06 0 0 1 8.06-8.06z" fill="#fff" stroke="#666" stroke-width="6" transform="matrix(0 1 -1 0 715.61 -57.06)"/><path d="m337 326.33v46" fill="#fff" stroke="#666" stroke-width="2"/><path d="m337 320.33v2" fill="#fff" stroke="#666" stroke-width="2"/><path d="m339 274.33v2" fill="none" stroke="#fff" stroke-width="2"/><path d="m416.67 363.61h53.85a.88.88 0 0 1 .88.88v18.25a.88.88 0 0 1 -.88.88h-53.85a8.06 8.06 0 0 1 -8.06-8.06v-3.89a8.06 8.06 0 0 1 8.06-8.06z" fill="#fff" stroke="#666" stroke-width="6" transform="matrix(0 1 -1 0 755.61 -97.06)"/><path d="m377 326.33v46" fill="#fff" stroke="#666" stroke-width="2"/><path d="m377 320.33v2" fill="#fff" stroke="#666" stroke-width="2"/><path d="m319 237.33-150-116" fill="none" stroke="#fff" stroke-width="4"/><path d="m82 275 127-106s15-12 33 4l129 101" fill="none" stroke="#666" stroke-width="3" transform="translate(-58 -30.67)"/><circle cx="166" cy="195.33" fill="#fff" r="27" stroke="#666" stroke-width="6"/></g><path d="m163 169.33h5v53h-5z" fill="#666"/><path d="m221 199h5v53h-5z" fill="#666" transform="matrix(0 -1 1 0 -60 418.33)"/><path d="m172.08 303v16.54h-23.08s2.31-15.71 23.08-16.54z" fill="#8dc63f" stroke="#666" stroke-linecap="round" stroke-linejoin="round" stroke-width="3" transform="translate(-58 -30.67)"/><path d="m170.92 303v16.54h23.08s-2.31-15.71-23.08-16.54z" fill="#8dc63f" stroke="#666" stroke-linecap="round" stroke-linejoin="round" stroke-width="3" transform="translate(-58 -30.67)"/></svg>