<svg viewBox="0 0 434 396.77" xmlns="http://www.w3.org/2000/svg"><path d="m200.46 63.27s103.06-69.59 137.16 33.13 99.56 8.53 137.8 107.08c38.44 99.09-138.94 248.43-267.89 190.37s-200.19-209.3-7.07-330.58z" fill="#8dc63f" opacity=".5" transform="translate(-46.75 -40.23)"/><rect fill="#8dc63f" height="371.83" rx="19.33" stroke="#666" stroke-linecap="round" stroke-linejoin="round" stroke-width="6" width="202.18" x="103.74" y="21.94"/><rect fill="#fff" height="350.91" rx="13.25" width="181.27" x="114.2" y="32.4"/><path d="m201.62 64.5 8.48 18.27c1.06 2.28 3.93 3.8 7.15 3.8h67.6c3.12 0 5.91-1.43 7-3.6l9.65-18.47" fill="#fff" stroke="#666" stroke-linecap="round" stroke-linejoin="round" stroke-width="6" transform="translate(-46.75 -40.23)"/><path d="m174.62 33.56h49.96" fill="none" stroke="#8dc63f" stroke-linecap="round" stroke-miterlimit="10" stroke-width="6"/><g fill="#8dc63f"><circle cx="34.28" cy="59.57" opacity=".5" r="34.28"/><circle cx="236.2" cy="33.56" r="3.49"/></g></svg>