<svg viewBox="0 0 430.63 429.07" xmlns="http://www.w3.org/2000/svg"><path d="m42.85 310.94s-46.05-128.94 82.15-143.72 41.92-107.77 166.67-128c125.41-20.38 238.4 208.11 130.5 337.26s-320.83 109.67-379.32-65.54z" fill="#8dc63f" opacity=".5" transform="translate(-34.8 -31)"/><g stroke="#666" stroke-linecap="round" stroke-linejoin="round"><path d="m198 227s-81 102-91 206c0 0 158 39 297 0 0 0-28-140-94-206z" fill="#fff" stroke-width="6" transform="translate(-34.8 -31)"/><path d="m149.2 6v59h16v-62z" fill="#fff" stroke-width="6"/><path d="m290.2 6v59h-16v-62z" fill="#fff" stroke-width="6"/><path d="m176 96s40-20 80 24c0 0 28-44 77-24 0 0 16 33-21 98h-112s-32-55-24-98z" fill="#8dc63f" stroke-width="6" transform="translate(-34.8 -31)"/><path d="m163.2 163h114v33h-114z" fill="#8dc63f" stroke-width="6"/><path d="m255 186a25 25 0 1 0 25 25 25 25 0 0 0 -25-25zm.5 35a10.5 10.5 0 1 1 10.5-10.5 10.5 10.5 0 0 1 -10.5 10.5z" fill="#fff" stroke-width="6" transform="translate(-34.8 -31)"/><path d="m213 227s-15 21-19 43" fill="none" stroke-width="6" transform="translate(-34.8 -31)"/><path d="m251 186s14.78-77.43 85.39-71.72" fill="#8dc63f" stroke-width="6" transform="translate(-34.8 -31)"/><path d="m230 227s-13 39-11 61" fill="none" stroke-width="6" transform="translate(-34.8 -31)"/><path d="m297 227s15 21 19 43" fill="none" stroke-width="6" transform="translate(-34.8 -31)"/><path d="m280 227s13 39 11 61" fill="none" stroke-width="6" transform="translate(-34.8 -31)"/><path d="m187 127s1 19 15 51" fill="none" stroke-width="4" transform="translate(-34.8 -31)"/></g><circle cx="170.7" cy="154.5" fill="#666" r="2.5"/><path d="m237 214s2 13 17 16" fill="#fff" stroke="#666" stroke-linecap="round" stroke-linejoin="round" stroke-width="3" transform="translate(-34.8 -31)"/><circle cx="201.7" cy="177.5" fill="#666" r="1.5"/><path d="m256 120s-23 35.31-19 73.66" fill="#8dc63f" stroke="#666" stroke-linecap="round" stroke-linejoin="round" stroke-width="6" transform="translate(-34.8 -31)"/><path d="m179 120s33-10 67 19" fill="none" stroke="#666" stroke-linecap="round" stroke-linejoin="round" stroke-width="6" transform="translate(-34.8 -31)"/><circle cx="79.7" cy="78.5" fill="#8dc63f" opacity=".5" r="29.5"/></svg>