<svg viewBox="0 0 336.41 419" xmlns="http://www.w3.org/2000/svg"><path d="m307.65 185.41c-32.68-39.55-104-136.83-191.92-30.3-29.82 36.14-24.83 70.08-20.63 116.74a120.3 120.3 0 0 0 103.58 109.15 161.89 161.89 0 0 1 71.25 27.53 100.33 100.33 0 0 0 83.58 15c52.08-13.77 84.27-66.91 72.32-119.43a100.32 100.32 0 0 0 -53.62-68 195.73 195.73 0 0 1 -64.56-50.69z" fill="#8ec640" opacity=".5" transform="translate(-91.92 -25)"/><g stroke-linecap="round" stroke-linejoin="round"><path d="m199.23 189.19h-36s-14.13 149.29 26.19 246.27h22.88s40.32-82.82 28.33-246.27z" fill="#fff" stroke="#666" stroke-width="6" transform="translate(-91.92 -25)"/><path d="m311.47 263.29h-46.86s-3.27 108.33 37.05 178.71h17.43s40.32-64.84 33.78-178.71z" fill="#8dc63f" stroke="#666" stroke-width="4" transform="translate(-91.92 -25)"/><path d="m88.78 116.24h42.5v44.68h-42.5z" fill="#fff" stroke="#666" stroke-width="6"/><path d="m137.82 126.05h-56.66" fill="none" stroke="#666" stroke-width="8"/><path d="m137.82 138.03h-56.66" fill="none" stroke="#666" stroke-width="8"/><path d="m137.82 150.02h-56.66" fill="none" stroke="#666" stroke-width="8"/><path d="m69.71 190.34h80.79v21.79h-80.79z" fill="#8dc63f" stroke="#666" stroke-width="4"/><path d="m217.37 236.11v-232.11" fill="none" stroke="#666" stroke-width="8"/><path d="m203.2 19.26h28.34" fill="none" stroke="#666" stroke-width="6"/><path d="m203.2 31.24h28.34" fill="none" stroke="#666" stroke-width="6"/><path d="m203.2 43.23h28.34" fill="none" stroke="#666" stroke-width="6"/><path d="m203.2 55.22h28.34" fill="none" stroke="#666" stroke-width="6"/><path d="m203.2 67.2h28.34" fill="none" stroke="#666" stroke-width="6"/><path d="m203.2 79.19h28.34" fill="none" stroke="#666" stroke-width="6"/><path d="m171 247s0 86 21 167" fill="none" stroke="#666" stroke-width="8" transform="translate(-91.92 -25)"/><path d="m275.79 303.63s-.66 41.05 19 105.81" fill="none" stroke="#666" stroke-width="8" transform="translate(-91.92 -25)"/><path d="m103.51 398.26.35 1.03" fill="none" stroke="#666" stroke-width="8"/><path d="m344 303s0 53-24.91 112.85" fill="none" stroke="#fff" stroke-width="6" transform="translate(-91.92 -25)"/><path d="m221.73 398.47 1.09-1.08" fill="none" stroke="#fff" stroke-width="6"/></g><circle cx="271.08" cy="167" fill="#8ec640" opacity=".5" r="21"/><path d="m79.08 174v8" fill="none" stroke="#666" stroke-linecap="round" stroke-linejoin="round" stroke-width="8"/><path d="m252.08 245v5" fill="none" stroke="#fff" stroke-linecap="round" stroke-linejoin="round" stroke-width="6"/><path d="m351 294a62.58 62.58 0 0 0 0-11h-84c0 4.65.13 8.26.29 11z" fill="#fff" transform="translate(-91.92 -25)"/></svg>