<svg viewBox="0 0 411.07 348.79" xmlns="http://www.w3.org/2000/svg"><path d="m41.16 154.85s-19.07-64.46 92.5-32 91.5-11.13 133.81-33.22 111.25-.21 102.37 97.86 10.17 92.7 35.29 112.85c89.7 72 27.23 138.84-134.16 109.63-27.7-5-239.42 25.18-195.1-68.05s78.13-113.27 39.58-126.5-73.71-45.36-74.29-60.57z" fill="#8ec640" opacity=".5" transform="translate(-39.93 -81.78)"/><circle cx="388.3" cy="173.12" fill="#8ec640" opacity=".5" r="22.77"/><path d="m150.45 215.77s-10.67-18.29-32-12.19-23.68 53.25 22.84 49.1" fill="#fff" stroke="#666" stroke-linecap="round" stroke-linejoin="round" stroke-width="4" transform="translate(-39.93 -81.78)"/><path d="m141.3 236.35s0-25.15-22.86-23.63" fill="#fff" stroke="#666" stroke-linecap="round" stroke-linejoin="round" stroke-width="4" transform="translate(-39.93 -81.78)"/><path d="m135.21 218.82s-6.86-3-8.39 5.33" fill="#fff" stroke="#666" stroke-linecap="round" stroke-linejoin="round" stroke-width="4" transform="translate(-39.93 -81.78)"/><path d="m200.33 102.17s-90 40.12-59.64 126.87c0 0-11.93 66.15 83.5 62.9 0 0 128 6.51 134.47-86.75 0 0 6.5-94.35-82.42-112.78 0 0-39.04-8.68-75.91 9.76z" fill="#fff" stroke="#666" stroke-linecap="round" stroke-linejoin="round" stroke-width="4" transform="translate(-39.93 -81.78)"/><path d="m344.92 187.91s21.7-20.91 48.55-4.29 11.77 82.09-50.31 58.38" fill="#fff" stroke="#666" stroke-linecap="round" stroke-linejoin="round" stroke-width="4" transform="translate(-39.93 -81.78)"/><path d="m350.72 220.12s5.63-35.34 37.41-28.08" fill="#fff" stroke="#666" stroke-linecap="round" stroke-linejoin="round" stroke-width="4" transform="translate(-39.93 -81.78)"/><path d="m359 205.87s10.57-1.51 9.4 10.56" fill="#fff" stroke="#666" stroke-linecap="round" stroke-linejoin="round" stroke-width="4" transform="translate(-39.93 -81.78)"/><path d="m185.15 237.72h73.74s-6.51 26-26 28.19c-.03 0-41.23 8.68-47.74-28.19z" fill="#666" transform="translate(-39.93 -81.78)"/><path d="m317 271.49s50.33 89.85 12.38 124.51c0 0-27.11 28.2-82.42 14.1 0 0-66.15 3.25-75.91 0 0 0-22.66 14-22.77-54.66a5.85 5.85 0 0 1 .16-1.38c.82-3.28 4.95-15.84 18.27-2.52 0 0 3.26 4.34 11.93 3.26 0 0 13-57.25 29.28-62.78 0 .04 75.08 2.39 109.08-20.53z" fill="#fff" stroke="#666" stroke-linecap="round" stroke-linejoin="round" stroke-width="4" transform="translate(-39.93 -81.78)"/><path d="m284.92 363.51s53.78-3.29 61.81-15.18c0 0 27.11 45.54-51 63.88l-46.1-1.21a40.25 40.25 0 0 1 -29.3-13.83c-13.11-15.06-33.8-38-41.69-42.32 0-.01 47.72 23.84 106.28 8.66z" fill="#8dc63f" stroke="#666" stroke-linecap="round" stroke-linejoin="round" stroke-width="4" transform="translate(-39.93 -81.78)"/><rect fill="#fff" height="104.96" rx="12" stroke="#666" stroke-linecap="round" stroke-linejoin="round" stroke-width="4" transform="matrix(.8660254 -.5 .5 .8660254 -191.68 72.93)" width="65.87" x="179.89" y="308.05"/><path d="m188.06 374.87 18.74 32.19a11.2 11.2 0 0 0 15.27 4l29.78-17.34a11.2 11.2 0 0 0 4-15.27l-18.7-32.15z" fill="#8ec640" transform="translate(-39.93 -81.78)"/><g stroke-linecap="round" stroke-linejoin="round"><path d="m211 221.45s9.76-13 19.52 0" fill="#fff" stroke="#666" stroke-width="4" transform="translate(-39.93 -81.78)"/><path d="m310.94 307.12s10.85 32.53-56.39 48.8c0 0-38 15.18-36.87-14.1 0 0-2.17-21.69 15.18-21.69 0 0-1.08-16.26 8.68-11.92a16.06 16.06 0 0 1 5.46 9.79s31.45-9.76 35.79-19.52" fill="#fff" stroke="#666" stroke-width="4" transform="translate(-39.93 -81.78)"/><ellipse cx="227.64" cy="313.18" fill="#fff" rx="28.19" ry="33.62" stroke="#666" stroke-width="4"/><path d="m219 108s-13.3 21.93-.89 37c0 0 2.38-19.86 13.36-25.53l6.15 17.91s8.38-14.38 7.17-24.21" fill="#fff" stroke="#666" stroke-width="2" transform="translate(-39.93 -81.78)"/><path d="m217.66 337.43s8.7.05 14.12-3.2" fill="#fff" stroke="#666" stroke-width="4" transform="translate(-39.93 -81.78)"/><rect fill="#fff" height="32.53" rx="7" stroke="#666" stroke-width="4" transform="matrix(.8660254 -.5 .5 .8660254 -164.06 43.15)" width="15.18" x="163.46" y="277.84"/><path d="m218.56 349.68s12.13-.27 15.39-3.52" fill="#fff" stroke="#666" stroke-width="4" transform="translate(-39.93 -81.78)"/><rect fill="#8dc63f" height="18.44" rx="4.67" stroke="#666" stroke-width="4" transform="matrix(.8660254 -.5 .5 .8660254 -169.21 48.89)" width="37.95" x="160.21" y="297.36"/><path d="m128.96 229.68 5.34 8.62" fill="#fff" stroke="#666" stroke-width="4"/><path d="m135.46 226.42 5.35 8.63" fill="#fff" stroke="#666" stroke-width="4"/><path d="m141.97 222.09 5.35 8.62" fill="#fff" stroke="#666" stroke-width="4"/><path d="m148.48 218.83 5.34 8.63" fill="#fff" stroke="#666" stroke-width="4"/><path d="m311.59 318.33a25.45 25.45 0 0 0 8-2.53" fill="#fff" stroke="#666" stroke-width="4" transform="translate(-39.93 -81.78)"/><path d="m209 405.8-34.7-60.72c-6.51-9.76 1.08-14.1 1.08-14.1" fill="none" stroke="#666" stroke-width="4" transform="translate(-39.93 -81.78)"/><path d="m208 238.8a2 2 0 0 0 -.08.41v8.13c0 2 2.93 3.66 6.51 3.66s6.5-1.64 6.5-3.66v-8.13a2 2 0 0 0 -.07-.41" fill="#fff" stroke="#666" stroke-width="2" transform="translate(-39.93 -81.78)"/><path d="m221 238.8a2 2 0 0 0 -.08.41v8.13c0 2 2.93 3.66 6.51 3.66s6.51-1.64 6.51-3.66v-8.13a2 2 0 0 0 -.08-.41" fill="#fff" stroke="#666" stroke-width="2" transform="translate(-39.93 -81.78)"/><path d="m344.56 360.26s1.08 23.85-22.77 34.7" fill="none" stroke="#fff" stroke-width="4" transform="translate(-39.93 -81.78)"/><path d="m257.73 211.6s7.21-25.6 33.8-15.6" fill="#fff" stroke="#666" stroke-width="6" transform="translate(-39.93 -81.78)"/><path d="m188.75 214.31s-6-25.94-33.06-17.09" fill="#fff" stroke="#666" stroke-width="6" transform="translate(-39.93 -81.78)"/></g></svg>