<svg viewBox="0 0 357 383.95" xmlns="http://www.w3.org/2000/svg"><path d="m145.07 61.3s10.9-61 89.46 11.85 80 28.63 124 27.89 91.81 45.79 44 123-29.9 80.6-17.53 107.6c44.22 96.38-34.91 125.71-155.9 35-20.75-15.64-207.77-78.2-132.72-136.75s111.21-61.14 84.9-88-42.02-67.82-36.21-80.59z" fill="#8ec640" opacity=".5" transform="translate(-73 -37.38)"/><circle cx="21" cy="106.62" fill="#8ec640" opacity=".5" r="21"/><circle cx="336" cy="254.62" fill="#8ec640" opacity=".5" r="21"/><g stroke="#666" stroke-linecap="round" stroke-linejoin="round"><path d="m81.94 355.49v-20.75" fill="none" stroke-width="13"/><path d="m267.31 355.94v-20.75" fill="none" stroke-width="13"/><rect fill="#fff" height="290.46" rx="12" stroke-width="6" width="221" x="63" y="57.81"/><path d="m63 95.7h221" fill="none" stroke-width="6"/><path d="m72 304.62v-198" fill="none" stroke-width="4"/><path d="m124.34 58.71v36.99" fill="none" stroke-width="4"/><path d="m63 312.19h221" fill="none" stroke-width="6"/><circle cx="172.82" cy="207.78" fill="#fff" r="66.75" stroke-width="6"/><circle cx="172.82" cy="207.78" fill="#fff" r="49.16" stroke-width="6"/><circle cx="237.54" cy="79.01" fill="#fff" r="5.86" stroke-width="2"/><circle cx="253.78" cy="79.01" fill="#fff" r="5.86" stroke-width="2"/><circle cx="270.02" cy="79.01" fill="#fff" r="5.86" stroke-width="2"/></g><path d="m245.63 238.66c-9.65-5-28.66-5.07-45.37-3.84a46.91 46.91 0 1 0 92.74 10.18c0-1.4-.08-2.79-.2-4.17-15.49 8.25-31.04 6.24-47.17-2.17z" fill="#8dc63f" transform="translate(-73 -37.38)"/><circle cx="180.72" cy="78.11" fill="#fff" r="8.57" stroke="#666" stroke-linecap="round" stroke-linejoin="round" stroke-width="4"/><circle cx="150.54" cy="208.01" fill="#fff" r="5.86"/><circle cx="141.84" cy="218.71" fill="#fff" r="3.16"/><circle cx="152.68" cy="218.76" fill="#fff" r="2.34"/><path d="m154.41 96.09a14.31 14.31 0 0 0 -.37 3.16 14 14 0 1 0 28 0 13.73 13.73 0 0 0 -.37-3.16z" fill="#fff" stroke="#666" stroke-linecap="round" stroke-linejoin="round" stroke-width="4" transform="translate(-73 -37.38)"/><path d="m142 70.62h9v9h-9z" fill="#fff" stroke="#666" stroke-linecap="round" stroke-linejoin="round" stroke-width="4"/><path d="m132 70.62h9v9h-9z" fill="#fff" stroke="#666" stroke-linecap="round" stroke-linejoin="round" stroke-width="4"/><path d="m96 204.62h20v11h-20z" fill="#fff" stroke="#666" stroke-linecap="round" stroke-linejoin="round" stroke-width="4"/><path d="m169 263s10 49 60 58" fill="none" stroke="#666" stroke-linecap="round" stroke-linejoin="round" stroke-width="4" transform="translate(-73 -37.38)"/><path d="m162 283.62h3" fill="none" stroke="#666" stroke-linecap="round" stroke-linejoin="round" stroke-width="4"/><path d="m272 64.62h-133" fill="none" stroke="#666" stroke-linecap="round" stroke-linejoin="round" stroke-width="4"/><path d="m71 67.62v19" fill="none" stroke="#666" stroke-linecap="round" stroke-linejoin="round" stroke-width="4"/><path d="m131 64.62h2" fill="none" stroke="#666" stroke-linecap="round" stroke-linejoin="round" stroke-width="4"/><path d="m274 339.62h-194" fill="none" stroke="#666" stroke-linecap="round" stroke-linejoin="round" stroke-width="4"/><path d="m71 339.62h2" fill="none" stroke="#666" stroke-linecap="round" stroke-linejoin="round" stroke-width="4"/></svg>