<svg viewBox="0 0 399.66 394.04" xmlns="http://www.w3.org/2000/svg"><path d="m422.36 347.76s-55.62 111.24-145.87 36.48-97 40.24-188.71-28.85c-92.2-69.48-13.36-287.19 139.15-297.6 44-3 53.42 23.6 37.07 60.21-15 33.68 100-60 163.55 52.56 28.17 49.88 27.76 114.6-5.19 177.2z" fill="#8dc63f" opacity=".5" transform="translate(-48.34 -54)"/><g stroke="#666"><rect fill="none" height="86.13" rx="12" stroke-miterlimit="10" stroke-width="14" transform="matrix(-1 0 0 -1 640.57 518.86)" width="61.91" x="313.5" y="243.36"/><path d="m153.22 34.01v61.46" fill="none" stroke-linecap="round" stroke-linejoin="round" stroke-width="11"/><path d="m131.98 383.04v-66.4" fill="#8dc63f" stroke-linecap="round" stroke-linejoin="round" stroke-width="22"/><path d="m269.26 383.04v-66.4" fill="#8dc63f" stroke-linecap="round" stroke-linejoin="round" stroke-width="22"/><path d="m247.43 31.32v61.46" fill="none" stroke-linecap="round" stroke-linejoin="round" stroke-width="11"/><rect fill="#fff" height="287.11" rx="39.84" stroke-linecap="round" stroke-linejoin="round" stroke-width="6" width="202.77" x="98.56" y="87.85"/><rect fill="#8dc63f" height="17.05" rx="8.52" stroke-linecap="round" stroke-linejoin="round" stroke-width="6" width="132.79" x="132.88" y="16.96"/><path d="m202 154h109.56s21.53-2.69 24.22 23.33" fill="none" stroke-linecap="round" stroke-miterlimit="10" stroke-width="6" transform="translate(-48.34 -54)"/><path d="m290 413.63h-107s-21.53 2.69-24.22-23.33" fill="none" stroke-linecap="round" stroke-miterlimit="10" stroke-width="6" transform="translate(-48.34 -54)"/><rect fill="#8dc63f" height="226.1" rx="8.52" stroke-linecap="round" stroke-linejoin="round" stroke-width="3" width="17.05" x="123.24" y="116.56"/><path d="m215.09 170.56a8.55 8.55 0 0 0 -8.53 8.52v209.06a8.53 8.53 0 0 0 17.05 0v-209.06a8.54 8.54 0 0 0 -8.52-8.52z" fill="#8dc63f" stroke-linecap="round" stroke-linejoin="round" stroke-width="3" transform="translate(-48.34 -54)"/><path d="m249.18 170.56a8.54 8.54 0 0 0 -8.52 8.52v209.06a8.53 8.53 0 0 0 17 0v-209.06a8.55 8.55 0 0 0 -8.48-8.52z" fill="#8dc63f" stroke-linecap="round" stroke-linejoin="round" stroke-width="3" transform="translate(-48.34 -54)"/><path d="m285.07 170.56a8.54 8.54 0 0 0 -8.52 8.52v209.06a8.53 8.53 0 0 0 17.05 0v-209.06a8.55 8.55 0 0 0 -8.53-8.52z" fill="#8dc63f" stroke-linecap="round" stroke-linejoin="round" stroke-width="3" transform="translate(-48.34 -54)"/><rect fill="#8dc63f" height="226.1" rx="8.52" stroke-linecap="round" stroke-linejoin="round" stroke-width="3" width="17.05" x="259.62" y="116.56"/></g><circle cx="365.66" cy="34" fill="#8dc63f" opacity=".5" r="34"/><path d="m253.66 360h7" fill="none" stroke="#666" stroke-linecap="round" stroke-miterlimit="10" stroke-width="6"/><path d="m135.66 100h7" fill="none" stroke="#666" stroke-linecap="round" stroke-miterlimit="10" stroke-width="6"/><path d="m145.16 23.5h99" fill="none" stroke="#fff" stroke-linecap="round" stroke-miterlimit="10" stroke-width="3"/><path d="m247.16 80.5v-37" fill="none" stroke="#fff" stroke-linecap="round" stroke-miterlimit="10" stroke-width="3"/><path d="m153.16 79.5v-37" fill="none" stroke="#fff" stroke-linecap="round" stroke-miterlimit="10" stroke-width="3"/><path d="m329.57 265.5v-64" fill="none" stroke="#fff" stroke-linecap="round" stroke-miterlimit="10" stroke-width="3"/><path d="m249.16 23.5h6" fill="none" stroke="#fff" stroke-linecap="round" stroke-miterlimit="10" stroke-width="3"/><path d="m329.57 196.5v-1" fill="none" stroke="#fff" stroke-linecap="round" stroke-miterlimit="10" stroke-width="3"/></svg>