<svg viewBox="0 0 375.16 348.82" xmlns="http://www.w3.org/2000/svg"><path d="m156.55 330.09c-44.65-25.26-144.07-73.92-54.55-179.09 30.37-35.68 55.83-41.27 102.51-45.3a120.32 120.32 0 0 1 125.62 82.9 161.88 161.88 0 0 0 39.55 65.4 100.29 100.29 0 0 1 29.32 79.62c-4.45 53.68-51.14 94.67-104.95 92.09a100.35 100.35 0 0 1 -76.28-40.92 195.65 195.65 0 0 0 -61.22-54.7z" fill="#8ec640" opacity=".5" transform="translate(-65.84 -77)"/><path d="m94.16 65h63l27 27v61h-82.02v-58z" fill="#fff" stroke="#666" stroke-linecap="round" stroke-linejoin="round" stroke-width="4"/><path d="m123.16 95h55.04v10" fill="#fff" stroke="#666" stroke-linecap="round" stroke-linejoin="round" stroke-width="4"/><path d="m64.16 165v-70l30-30 29.5 29.5v63.5z" fill="#fff" stroke="#666" stroke-linecap="round" stroke-linejoin="round" stroke-width="4"/><circle cx="354.16" cy="69" fill="#8ec640" opacity=".5" r="21"/><path d="m200 56h19.33a30.83 30.83 0 0 1 30.83 30.83v207.67a12 12 0 0 1 -12 12h-57a12 12 0 0 1 -12-12v-207.67a30.83 30.83 0 0 1 30.84-30.83z" fill="#fff" stroke="#666" stroke-linecap="round" stroke-linejoin="round" stroke-width="3"/><path d="m170.16 92h78v33h-78z" fill="#8dc63f"/><path d="m222 176.63a21.23 21.23 0 0 0 -10.64 6.48 11.59 11.59 0 0 1 -12.49 3 21.25 21.25 0 0 0 -12.32-.75c-14.07 3.47-21.77 21.28-17.21 39.78s27.72 28.7 41.78 25.23a14.19 14.19 0 0 0 8.81-5.86 14.23 14.23 0 0 0 10.53 1.09c14.06-3.46 29.82-23.26 25.26-41.76s-19.72-30.67-33.72-27.21z" fill="#8dc63f" stroke="#666" stroke-linecap="round" stroke-linejoin="round" stroke-width="4" transform="translate(-65.84 -77)"/><path d="m265.37 315s37.12-167 95-177 15.54 110.51-47.49 184.25c0 0-34.53 75.75-47.48 42.75-.03 0-12.11-32-.03-50z" fill="#8dc63f" stroke="#666" stroke-linecap="round" stroke-linejoin="round" stroke-width="4" transform="translate(-65.84 -77)"/><rect fill="#fff" height="25.83" rx="12" stroke="#666" stroke-linecap="round" stroke-linejoin="round" stroke-width="6" width="285" x="36.16" y="145.03"/><path d="m54.16 153h255" fill="none" stroke="#666" stroke-linecap="round" stroke-linejoin="round" stroke-width="4"/><path d="m118 249.7 14.45 122.67c1.84 17.52 14.75 16.6 14.75 16.6h200.14c10.15-.92 10.15-16.6 10.15-16.6l12.6-122.67zm67.65 122.57a7.86 7.86 0 0 1 -8.33-7.31l-4.86-74.55a7.87 7.87 0 0 1 7.32-8.33 7.86 7.86 0 0 1 8.33 7.31l4.89 74.55a7.86 7.86 0 0 1 -7.36 8.33zm44.56-7.74a7.84 7.84 0 1 1 -15.68 0v-74.71a7.84 7.84 0 1 1 15.68 0zm42.43 0a7.84 7.84 0 0 1 -15.68 0v-74.71a7.84 7.84 0 0 1 15.68 0zm46.68-74.12-4.86 74.59a7.86 7.86 0 0 1 -8.33 7.31 7.87 7.87 0 0 1 -7.32-8.33l4.86-74.55a7.86 7.86 0 0 1 8.33-7.31 7.86 7.86 0 0 1 7.31 8.29z" fill="#fff" stroke="#666" stroke-linecap="round" stroke-linejoin="round" stroke-width="6" transform="translate(-65.84 -77)"/><path d="m60.16 181 15 115" fill="none" stroke="#666" stroke-linecap="round" stroke-linejoin="round" stroke-width="4"/><rect fill="#8dc63f" height="21.21" rx="10.61" stroke="#666" stroke-linecap="round" stroke-linejoin="round" stroke-width="4" transform="matrix(.70710678 .70710678 -.70710678 .70710678 230.52 -221.92)" width="161.96" x="242.13" y="274.67"/><rect fill="#8dc63f" height="21.21" rx="10.61" stroke="#666" stroke-linecap="round" stroke-linejoin="round" stroke-width="4" transform="matrix(-.70710678 .70710678 -.70710678 -.70710678 426.09 289.79)" width="161.96" x="89.02" y="274.67"/><circle cx="207.71" cy="158.86" fill="#fff" r="3.69" stroke="#666" stroke-linecap="round" stroke-linejoin="round" stroke-width="4"/><circle cx="153.29" cy="158.86" fill="#fff" r="3.69" stroke="#666" stroke-linecap="round" stroke-linejoin="round" stroke-width="4"/><path d="m221.16 165 83.4 84.25" fill="none" stroke="#fff" stroke-linecap="round" stroke-linejoin="round" stroke-width="4"/><path d="m145.16 173-81.33 82.71" fill="none" stroke="#fff" stroke-linecap="round" stroke-linejoin="round" stroke-width="4"/><path d="m376.82 141.67s14.6 17.33-12.17 73.33h10.35s25.05-59 1.82-73.33z" fill="#fff" transform="translate(-65.84 -77)"/><path d="m322 171.05s26.22.95 34.85 11.95c0 0-4.82-15-28.31-21z" fill="#fff" transform="translate(-65.84 -77)"/><path d="m309.4 193s26.76 1 35.4 12c0 0-5.87-17-29.36-23z" fill="#fff" transform="translate(-65.84 -77)"/><path d="m193.66 33.5h33v22h-33z" fill="#fff" stroke="#666" stroke-linecap="round" stroke-linejoin="round" stroke-width="3"/><path d="m199.5 193.5s8 2 16-5" fill="none" stroke="#666" stroke-linecap="round" stroke-linejoin="round" stroke-width="3" transform="translate(-65.84 -77)"/><path d="m199.53 163.08c.17 5.33 1.24 22.76 8 29.92l2.62-1s-7.24-21.43-3.83-30.4a2.17 2.17 0 0 0 -2.67-2.8 8.28 8.28 0 0 0 -2.81 1.52 3.37 3.37 0 0 0 -1.31 2.76z" fill="#666" transform="translate(-65.84 -77)"/><g stroke-linecap="round" stroke-linejoin="round"><path d="m221 185s8-5 15 0" fill="none" stroke="#fff" stroke-width="4" transform="translate(-65.84 -77)"/><path d="m204 163s-2 14 4 27" fill="none" stroke="#fff" transform="translate(-65.84 -77)"/><path d="m47.16 153h1" fill="none" stroke="#666" stroke-width="4"/><path d="m76.91 302.07.5.86" fill="none" stroke="#666" stroke-width="4"/><path d="m260 139s-18 8-19 22" fill="none" stroke="#666" stroke-width="4" transform="translate(-65.84 -77)"/><path d="m175.16 89.02v.13" fill="none" stroke="#666" stroke-width="4"/><path d="m198.16 40v11" fill="none" stroke="#666" stroke-width="4"/><path d="m194.83 1.5h30.67a7.17 7.17 0 0 1 7.17 7.17v22.16a1.67 1.67 0 0 1 -1.67 1.67h-41.67a1.67 1.67 0 0 1 -1.67-1.67v-22.16a7.17 7.17 0 0 1 7.17-7.17z" fill="#fff" stroke="#666" stroke-width="3"/><path d="m193.66 19v14.5" fill="#fff" stroke="#666" stroke-width="3"/><path d="m204.66 19v14.5" fill="#fff" stroke="#666" stroke-width="3"/><path d="m215.66 19v14.5" fill="#fff" stroke="#666" stroke-width="3"/><path d="m226.66 19v14.5" fill="#fff" stroke="#666" stroke-width="3"/><path d="m94.16 65v-17h61 4v17z" fill="#fff" stroke="#666" stroke-width="4"/><path d="m72.16 100v37" fill="none" stroke="#666" stroke-width="4"/></g></svg>